<?xml version="1.0" encoding="utf-8"?>
<!-- Generator: Adobe Illustrator 27.5.0, SVG Export Plug-In . SVG Version: 6.00 Build 0)  -->
<svg version="1.1" xmlns="http://www.w3.org/2000/svg" xmlns:xlink="http://www.w3.org/1999/xlink" x="0px" y="0px"
	 viewBox="0 0 2200 2200" style="enable-background:new 0 0 2200 2200;" xml:space="preserve">
<g id="background">
	<rect style="fill:#FFFFFF;" width="220" height="220"/>
</g>
<g id="Objects">
	<!-- <g>
		<path style="fill:#1E1E1E;" d="M1239.139,1526.148c-20.223-7.015-41.211,2.671-53.22,19.533
			c-13.184,18.512-16.419,43.582-5.123,63.808c9.473,16.961,29.492,26.246,48.436,20.999c24.446-6.771,39.458-31.97,40.282-56.301
			c0.029-0.395,0.045-0.788,0.04-1.176C1269.257,1553.229,1258.661,1532.92,1239.139,1526.148z M1251.124,1591.014
			c-0.478,1.716-1.143,3.461-1.904,5.07c0.597-1.262-1.967,3.12-1.556,2.634c-3.205,4.515-7.102,7.779-13.12,9.704
			c-13.507,4.319-27.759-1.523-35.941-12.738c-4.193-5.748-6.865-12.654-7.303-19.782c-0.211-3.433-0.008-6.731,0.707-10.093
			c0.568-2.673,1.824-5.628,2.878-7.451c0.838-1.448,2.962-4.195,4.194-5.318c2.346-2.139,4.645-3.764,7.811-5.096
			c6.135-2.581,13.239-2.794,19.622-1.026c15.694,4.347,25.404,20.075,25.64,35.754
			C1252.11,1585.39,1251.657,1589.1,1251.124,1591.014z"/>
		<path style="fill:#1E1E1E;" d="M1613.954,1346.701c21.012-6.221,33.836-27.79,34.708-48.858c0.034-0.429,0.054-0.856,0.047-1.277
			c-0.311-16.918-9.27-34.229-26.056-39.891c-17.518-5.91-35.394,2.862-45.668,17.385c-11.254,15.908-14.203,37.176-4.761,54.651
			C1580.186,1343.446,1597.694,1351.516,1613.954,1346.701z M1584.434,1291.367c0.553-2.696,1.05-3.716,2.207-5.717
			c0.237-0.409,0.324-0.576,0.339-0.623c0.277-0.369,0.567-0.731,0.854-1.087c1.109-1.375,0.94-1.187,1.99-2.099
			c1.698-1.477,3.198-2.47,5.396-3.404c4.928-2.095,10.92-2.194,16.01-0.635c12.283,3.763,19.849,16.008,20.077,28.424
			c-0.044,2.383-0.401,5.197-1.03,7.151c-0.032,0.1-0.705,1.767-0.857,2.176c-0.157,0.222-1.282,2.241-1.08,2.03
			c-2.416,3.505-5.587,6.017-10.294,7.413c-10.771,3.194-21.95-1.653-28.375-10.558c-3.163-4.384-5.19-9.55-5.688-14.947
			C1583.727,1296.726,1583.879,1294.076,1584.434,1291.367z"/>
		<path style="fill:#1E1E1E;" d="M1436.496,1586.021c-26.12-9.253-53.773,2.27-69.542,24.276
			c-17.116,23.887-20.934,56.184-6.548,82.327c12.488,22.693,38.987,35.426,64.351,28.578c31.468-8.496,50.886-40.82,51.656-72.121
			c0.025-0.359,0.036-0.717,0.032-1.071C1476.16,1622.054,1462.028,1595.066,1436.496,1586.021z M1451.248,1683.96
			c0.209-0.358-1.656,2.096-1.59,2.015c-0.734,0.905-1.494,1.8-2.292,2.652c-0.012-0.039-2.065,1.946-1.871,1.773
			c-0.954,0.854-1.935,1.687-2.953,2.463c-3.014,2.294-7.218,4.592-11.242,5.904c-19.291,6.292-39.789-1.664-51.648-17.706
			c-6.142-8.308-10.001-18.361-10.685-28.697c-0.339-5.126-0.043-10.125,1.02-15.15c1.039-4.91,2.583-8.704,4.832-12.578
			c1.864-3.211,4.073-6.097,6.605-8.485c3.802-3.586,7.658-6.245,12.6-8.313c8.653-3.621,18.332-3.977,27.385-1.783
			c23.055,5.587,37.385,28.92,37.635,51.617C1458.929,1668.075,1456.567,1676.201,1451.248,1683.96z"/>
		<path style="fill:#1E1E1E;" d="M1956.844,1707.446c-3.706-32.257-7.412-64.515-11.118-96.772
			c-0.847-7.376-1.695-14.753-2.542-22.129c-0.474-4.12-2.306-6.617-6.656-6.022c-27.311,3.737-50.653-18.869-54.219-44.955
			c-0.883-6.459-0.545-13.121,0.938-19.458c0.559-2.39,1.521-5.201,2.651-7.809c0.609-1.407,0.552-1.284,1.661-3.239
			c0.247-0.435,2.155-3.427,1.951-3.194c6.763-9.445,17.022-15.446,29.43-17.126c5.844-0.791,11.367-10.284,10.747-15.682
			c-4.401-38.32-8.803-76.641-13.204-114.961c-0.629-5.477-1.258-10.953-1.887-16.43c-0.011-0.097-0.027-0.189-0.04-0.284
			c-0.097-1.388-0.461-2.744-1.176-4.001c-26.822-47.214-69.058-83.462-116.015-109.788c-3.727-2.089-8.248,1.482-10.477,4.182
			c-2.879,3.486-5.233,8.907-3.933,13.467c1.833,6.43,2.267,14.063,0.677,19.883c-1.064,3.894-1.697,5.04-3.701,8.07
			c0.882-1.333-1.388,1.734-1.688,2.088c-1.154,1.362-0.928,1.081-2.001,2.023c-8.612,7.562-21.842,8.922-32.45,3.655
			c-11.279-5.601-19.015-17.077-20.348-29.581c-0.632-5.931,0.436-13.206,2.611-17.505c2.496-4.935,5.656-8.241,11.213-11.268
			c-0.024,0.006-0.048,0.012-0.072,0.018c3.551-1.823,6.232-5.686,7.563-9.256c1.21-3.245,2.211-11.754-3.5-11.754
			c-2.19,0-6.545-2.6-8.881-3.443c-3.355-1.21-6.723-2.383-10.105-3.516c-6.09-2.041-12.22-3.968-18.383-5.776
			c-7.805-2.289-15.674-4.385-23.614-6.154c-3.813-0.849-5.977-1.615-9.802,0.046c-1.124,0.488-2.233,1.015-3.349,1.522
			c-16.53,7.513-33.061,15.027-49.591,22.54c-52.877,24.033-105.753,48.067-158.63,72.1c-13.476,6.125-26.951,12.25-40.427,18.375
			c-5.413,2.46-13.137,16.121-5.867,20.402c9.468,5.576,15.382,15.851,15.04,26.917c-0.064,2.065-0.582,4.962-1.014,6.314
			c-0.08,0.25-0.946,2.329-0.958,2.47c-0.393,0.7-1.189,2.083-1.031,1.912c-2.126,3.071-4.579,5.137-8.406,6.738
			c-9.08,3.799-19.965,0.776-26.831-5.943c-8.184-8.008-10.809-19.456-7.808-30.327c1.762-6.383-2.857-10.425-8.628-7.802
			c-34.566,15.71-69.133,31.42-103.699,47.131c-54.635,24.831-109.269,49.662-163.904,74.494
			c-11.875,5.397-23.75,10.794-35.624,16.191c-3.444,0.692-6.103,3.428-7.824,6.793c-1.608,2.796-2.543,6.021-2.463,8.785
			c0.022,0.777,0.13,1.47,0.298,2.096c0.011,0.088,0.014,0.184,0.027,0.271c9.244,60.516,18.49,121.032,27.736,181.548
			c7.193,47.076,14.386,94.153,21.579,141.229c1.374,8.99,2.747,17.979,4.121,26.969c0.26,1.703,2.365,3.937,4.224,3.844
			c15.667-0.784,31.334-1.567,47.001-2.351c37.617-1.882,75.234-3.763,112.851-5.645c45.331-2.267,90.663-4.535,135.994-6.802
			c39.341-1.968,78.683-3.936,118.024-5.903c19.114-0.956,38.255-1.688,57.357-2.869c0.267-0.017,0.534-0.027,0.801-0.04
			c1.865-0.093,3.569-0.697,5.088-1.636c0.524-0.309,1.011-0.646,1.433-1.004c0.272-0.23,0.538-0.472,0.798-0.723
			c0.396-0.377,0.767-0.783,1.125-1.203c3.191-3.707,5.098-8.922,4.083-13.673c-1.957-9.166-2.43-18.711-1.008-27.994
			c1.107-7.228,3.755-15.736,6.453-20.879c3.412-6.504,7.017-11.67,11.671-16.178c5.51-5.337,11.208-9.269,18.267-12.435
			c29.047-13.024,62.386,0.259,79.668,25.573c10.692,15.662,15.382,35.201,12.973,54.02c-0.359,2.802-0.126,9.114,4.309,8.892
			c24.334-1.217,48.668-2.435,73.001-3.652c38.967-1.949,77.934-3.899,116.901-5.849c8.896-0.445,17.791-0.89,26.687-1.335
			c6.938-0.347,13.65-8.934,12.853-15.871C1961.466,1747.677,1959.155,1727.561,1956.844,1707.446z M1335.932,1352.886
			c9.025-4.102,18.05-8.204,27.075-12.306c-0.102,20.583,12.366,41.622,34.793,43.125c27.78,1.862,48.227-27.383,47.237-53.002
			c-0.333-8.623-2.962-16.974-7.678-23.918c22.274-10.124,44.547-20.248,66.821-30.371c45.289-20.585,90.578-41.169,135.866-61.754
			c9.31-4.231,18.62-8.463,27.929-12.694c6.096,1.188,12.138,2.73,18.13,4.337c7.017,1.881,13.988,3.94,20.893,6.199
			c3.918,1.281,7.817,2.625,11.7,4.01c-4.65,6.124-8.119,13.204-10.253,20.554c-4.545,15.651-3.115,32.969,5.786,46.869
			c7.425,11.594,20.341,19.812,34.249,20.32c15.532,0.567,29.904-7.522,39.479-19.434c6.78-8.435,11.267-18.481,13.091-28.981
			c33.849,21.182,64.082,47.787,86.669,80.705c-12.61,1.807-25.22,3.614-37.83,5.422c-49.276,7.062-98.551,14.124-147.826,21.185
			c-66.816,9.576-133.633,19.151-200.449,28.727c-71.971,10.315-143.943,20.629-215.914,30.944
			c-50.461,7.232-100.923,14.464-151.384,21.696c12.57-5.713,25.141-11.426,37.711-17.14
			C1226.662,1402.549,1281.297,1377.718,1335.932,1352.886z M1886.227,1765.234c-38.967,1.95-77.934,3.899-116.902,5.849
			c-7.212,0.361-14.424,0.722-21.636,1.083c1.415-36.545-16.232-74.648-52.171-88.268c-38.776-14.695-79.274,5.96-99.019,40.562
			c-9.748,17.082-14.286,36.511-13.455,55.933c-10.756,0.538-21.512,1.076-32.268,1.614c-37.617,1.881-75.234,3.763-112.851,5.644
			c-45.331,2.267-90.663,4.535-135.994,6.802c-39.342,1.968-78.683,3.936-118.024,5.903c-13.003,0.65-26.005,1.301-39.008,1.951
			c-3.968,0.198-7.937,0.397-11.905,0.595c-1.121,0.056-2.406-0.006-3.661,0.016c-3.758-24.592-7.516-49.185-11.273-73.777
			c-8.663-56.693-17.325-113.387-25.987-170.08c-4.354-28.499-8.708-56.999-13.062-85.498
			c59.053-8.464,118.107-16.927,177.161-25.391c71.754-10.284,143.509-20.567,215.263-30.851
			c68.101-9.76,136.202-19.52,204.303-29.279c52.061-7.461,104.123-14.922,156.184-22.383c16.218-2.324,32.437-4.649,48.655-6.973
			c5.621-0.805,11.693-1.145,17.442-2.145c4.125,35.916,8.251,71.833,12.376,107.749c0.146,1.27,0.292,2.541,0.438,3.811
			c-22.392,8.307-38.419,29.957-44.176,52.921c-6.579,26.242,1.623,55.77,23.307,72.593c10.594,8.219,23.463,11.726,36.57,11.142
			c2.06,17.931,4.12,35.862,6.18,53.793c3.706,32.257,7.412,64.515,11.118,96.772c0.268,2.329,0.535,4.658,0.803,6.988
			C1925.166,1763.286,1905.696,1764.26,1886.227,1765.234z"/>
		<path style="fill:#1E1E1E;" d="M1668.909,1440.969c-33.408-12.382-69.348,2.038-89.697,30.27
			c-21.83,30.286-26.189,71.607-7.972,104.704c16.135,29.314,49.916,46.118,82.869,37.76c40.693-10.322,65.855-52.167,66.188-92.442
			C1720.019,1487.642,1701.624,1453.094,1668.909,1440.969z M1700.008,1551.197c-2.247,7.235-4.194,11.426-8.425,17.685
			c-0.113,0.167-0.92,1.266-2.029,2.666c-0.945,1.193-1.923,2.357-2.935,3.493c-1.529,1.717-4.618,4.584-7.304,6.704
			c-4.365,3.444-9.965,6.631-15.598,8.597c-26.634,9.294-55.325-1.407-71.806-23.721c-8.466-11.462-13.646-25.309-14.599-39.546
			c-0.488-7.282-0.018-14.455,1.542-21.585c1.34-6.124,3.777-12.303,6.463-17.098c3.131-5.589,6.44-9.98,10.99-14.193
			c4.854-4.494,9.662-7.725,15.715-10.603c12.159-5.782,26.387-6.536,39.357-3.381c31.592,7.685,51.256,39.513,51.515,70.707
			C1702.839,1537.681,1701.807,1545.402,1700.008,1551.197z"/>
	</g>
	<g>
		<path style="fill:#1E1E1E;" d="M413.417,1554.05c-0.704-16.988-10.946-32.116-27.534-37.198
			c-17.358-5.318-35.75,2.698-46.399,16.836c-11.307,15.012-14.677,35.817-4.826,52.436c8.667,14.622,26.858,21.452,43.121,17.074
			c20.746-5.586,34.626-25.908,35.619-46.813c0.04-0.464,0.064-0.925,0.055-1.379C413.46,1554.675,413.447,1554.356,413.417,1554.05
			z M395.165,1570.384c-0.658,2.052-1.104,2.794-2.134,4.091c-2.483,3.126-6.267,5.7-11.161,7.019
			c-10.792,2.908-22.732-1.121-29.671-9.865c-3.182-4.01-5.386-8.743-5.952-13.862c-0.28-2.535-0.127-5.046,0.479-7.515
			c0.383-1.562,1.133-3.214,1.834-4.274c0.821-1.242,2.333-2.875,3.995-4.119c1.47-1.1,3.292-2.126,5.233-2.892
			c5.437-2.147,11.626-2.228,17.243-0.77c11.945,3.101,20.773,14.205,21.021,26.471
			C396.009,1566.741,395.517,1569.285,395.165,1570.384z"/>
		<path style="fill:#1E1E1E;" d="M595.124,1603.836c-22.228-7.103-46.254,1.948-60.372,20.123
			c-14.956,19.255-19.033,46.461-5.986,67.808c11.466,18.76,34.488,27.703,55.711,22.63c26.848-6.417,45.236-32.554,46.156-59.453
			c0.031-0.405,0.048-0.807,0.043-1.204C630.347,1631.358,616.794,1610.761,595.124,1603.836z M611.75,1673.096
			c-0.793,2.268-0.903,2.541-1.51,3.68c-1.203,2.26-1.563,2.782-2.408,3.866c-4.055,5.204-9.948,9.432-17.334,11.541
			c-15.746,4.495-33.183-1.084-43.412-13.882c-4.806-6.013-8.186-13.366-8.757-21.111c-0.29-3.924-0.082-7.738,0.893-11.556
			c-0.116,0.453-0.524,1.565,0.283-0.966c0.267-0.836,0.588-1.654,0.903-2.473c0.146-0.379,0.249-0.655,0.333-0.882
			c0.049-0.09,0.108-0.203,0.192-0.37c0.627-1.25,1.338-2.476,2.107-3.646c-0.065,0.178,1.821-2.311,2.242-2.794
			c0.819-0.941,1.777-1.868,3.474-3.264c2.601-2.139,5.716-3.95,9.076-5.265c7.817-3.059,16.433-3.257,24.542-1.338
			c17.681,4.184,30.638,20.788,30.903,38.765C613.222,1666.957,612.658,1670.499,611.75,1673.096z"/>
		<path style="fill:#1E1E1E;" d="M755.285,1450.346c-28.527-9.324-59.563,1.663-77.795,25.134
			c-18.749,24.136-23.226,58.172-7.087,84.854c14.803,24.473,44.649,36.343,72.311,29.808c33.74-7.971,57.161-40.492,58.03-74.442
			c0.026-0.371,0.04-0.741,0.036-1.106C800.462,1486.008,782.878,1459.365,755.285,1450.346z M781.122,1538.656
			c-1.03,3.007-1.537,4.243-2.549,6.109c-0.622,1.147-1.272,2.272-1.951,3.385c-0.265,0.435-0.543,0.865-0.825,1.291
			c-0.139,0.183-0.488,0.663-0.651,0.875c-5.945,7.712-14.183,13.918-24.485,17.076c-21.758,6.67-46.095-0.687-60.438-18.395
			c-6.801-8.396-11.44-18.718-12.284-29.564c-0.433-5.558-0.064-10.932,1.218-16.354c1.128-4.774,2.788-8.34,5.688-12.933
			c0.605-0.958,1.849-2.629,3.579-4.632c1.741-2.017,2.767-2.995,5.315-5.104c3.64-3.012,7.797-5.534,12.355-7.434
			c10.665-4.444,22.658-5.047,33.862-2.529c24.85,5.584,43.14,28.497,43.421,53.809
			C783.32,1529.362,782.509,1534.605,781.122,1538.656z"/>
		<path style="fill:#1E1E1E;" d="M536.485,1349.773c-0.317-28.586-17.902-55.229-45.495-64.247
			c-28.527-9.324-59.563,1.663-77.795,25.134c-18.749,24.136-23.226,58.172-7.087,84.853c14.803,24.473,44.649,36.343,72.311,29.808
			c33.74-7.971,57.161-40.493,58.03-74.442C536.476,1350.508,536.49,1350.139,536.485,1349.773z M516.828,1373.836
			c-1.03,3.007-1.537,4.243-2.549,6.109c-0.622,1.147-1.272,2.272-1.951,3.385c-0.265,0.435-0.543,0.864-0.825,1.29
			c-0.138,0.182-0.488,0.664-0.651,0.876c-5.945,7.712-14.183,13.918-24.485,17.076c-21.758,6.67-46.095-0.687-60.438-18.395
			c-6.801-8.397-11.44-18.718-12.284-29.564c-0.433-5.558-0.064-10.932,1.218-16.354c1.128-4.774,2.788-8.34,5.688-12.933
			c0.605-0.958,1.849-2.629,3.579-4.632c1.741-2.017,2.767-2.995,5.315-5.104c3.641-3.012,7.797-5.534,12.355-7.434
			c10.665-4.444,22.658-5.047,33.862-2.529c24.85,5.584,43.14,28.497,43.421,53.809
			C519.026,1364.542,518.215,1369.785,516.828,1373.836z"/>
		<path style="fill:#1E1E1E;" d="M860.407,1349.654c0-6.833-6.781-7.677-11.07-3.571c-26.121,24.999-68.921,16.647-86.556-13.953
			c-7.458-12.942-8.993-29.572-4.034-42.649c2.114-5.576,5.698-11.165,10.148-15.353c5.12-4.82,10.954-8.584,17.744-10.91
			c19.812-6.786,42.39-1.978,57.582,12.561c7.587,7.261,16.187-7.393,16.187-13.946c0-25.134,0-50.267,0-75.401
			c0-2.612-1.404-6.163-4.55-6.211c-21.35-0.321-42.701-0.642-64.051-0.963c-50.895-0.765-101.789-1.53-152.684-2.295
			c-61.486-0.924-122.972-1.849-184.458-2.773c-53.124-0.799-106.249-1.597-159.373-2.396c-25.779-0.388-51.645-1.428-77.428-1.164
			c-0.361,0.004-0.724-0.011-1.085-0.016c-7.612-0.114-12.688,9.233-12.853,15.871c-0.526,21.224-1.052,42.448-1.578,63.672
			c-1.254,50.593-2.508,101.186-3.763,151.778c-1.515,61.125-3.031,122.251-4.546,183.376c-1.31,52.821-2.619,105.642-3.928,158.462
			c-0.635,25.622-2.17,51.404-1.91,77.038c0.004,0.363-0.018,0.727-0.027,1.09c-0.068,2.75,1.456,5.993,4.549,6.21
			c25.863,1.821,51.726,3.642,77.589,5.462c3.161,0.223,6.321,0.445,9.482,0.668c1.971,1.074,4.445,0.207,6.774-1.714
			c6.053-4.479,10.283-15.865,5.824-19.285c-7.89-13.4-10.06-30.186-4.843-43.941c1.192-3.144,1.657-4.078,3.825-7.632
			c1.219-1.999,0.423-0.845,1.874-2.678c1.204-1.52,2.428-3.039,3.781-4.431c0.87-0.895,4.552-4.107,6.655-5.563
			c2.481-1.718,5.992-3.641,9.072-4.941c26.874-11.35,58.669,1.499,71.783,27.068c7.869,15.342,7.658,33.867-1.398,48.561
			c-1.855,3.01-5.077,14.661,2.119,14.661c15.329,0,30.659,0,45.988,0c36.812,0,73.624,0,110.435,0c44.531,0,89.063,0,133.594,0
			c38.488,0,76.976,0,115.464,0c18.644,0,37.356,0.467,55.996,0c0.273-0.007,0.546,0,0.819,0c7.499,0,12.853-9.146,12.853-15.871
			c0-15.556,0-31.111,0-46.667c0-37.352,0-74.703,0-112.055c0-45.015,0-90.029,0-135.044c0-39.076,0-78.152,0-117.228
			c0-18.96,0.699-38.071,0-57.022C860.397,1350.193,860.407,1349.923,860.407,1349.654z M809.869,1812.267
			c-36.812,0-73.624,0-110.435,0c-44.531,0-89.063,0-133.594,0c-38.488,0-76.976,0-115.464,0c-12.641,0-25.282,0-37.922,0
			c-3.13,0-6.358-0.162-9.577-0.231c5.667-15.603,6.564-32.954,1.142-48.783c-5.792-16.911-18.238-31.442-34.508-39.055
			c-37.36-17.481-79.105,3.567-95.479,39.444c-6.8,14.901-8.437,31.561-4.872,47.185c-19.048-1.341-38.096-2.682-57.144-4.023
			c-2.099-0.148-4.197-0.296-6.296-0.443c0.478-19.264,0.955-38.528,1.433-57.792c1.254-50.593,2.508-101.186,3.763-151.778
			c1.515-61.125,3.031-122.251,4.546-183.376c1.309-52.821,2.619-105.642,3.928-158.463c0.511-20.626,1.656-41.381,1.9-62.064
			c17.079,0.257,34.157,0.514,51.236,0.77c50.895,0.765,101.789,1.53,152.684,2.295c61.486,0.924,122.972,1.849,184.458,2.773
			c53.124,0.799,106.249,1.597,159.373,2.396c17.503,0.263,35.007,0.526,52.51,0.789c5.428,0.082,10.857,0.163,16.285,0.245
			c1.659,0.025,3.425,0.185,5.168,0.239c0,14.488,0,28.975,0,43.463c-14.286-7.527-30.825-9.9-47.179-5.847
			c-20.152,4.994-37.518,19.31-47.441,37.405c-10.284,18.754-13.349,41.896-5.665,62.16c6.906,18.214,21.382,33.245,39.929,39.657
			c20.479,7.079,42.578,3.796,60.355-7.63c0,11.459,0,22.918,0,34.378c0,37.352,0,74.703,0,112.055c0,45.015,0,90.029,0,135.044
			c0,39.076,0,78.152,0,117.228c0,13.915-0.496,27.973-0.393,41.958C831.697,1812.267,820.783,1812.267,809.869,1812.267z"/>
	</g> -->
	<g>
		<path style="fill:#1E1E1E;" d="M283.279,581.424c-19.146-5.818-39.545,2.686-51.521,18.159
			c-13.014,16.815-16.725,40.705-5.254,59.319c9.926,16.107,29.822,23.598,48.016,19.076c23.341-5.802,39.129-28.722,40.089-52.09
			c0.035-0.434,0.056-0.866,0.049-1.291C314.312,604.898,302.406,587.236,283.279,581.424z M296.192,641.372
			c-0.899,2.718-2.026,4.603-3.046,5.87c-3.045,3.783-7.514,7.045-13.245,8.685c-13.02,3.725-27.396-0.914-35.81-11.531
			c-3.887-4.905-6.515-10.746-7.055-17.023c-0.261-3.034-0.06-5.967,0.672-8.909c0.603-2.424,1.252-3.829,2.905-6.323
			c0.439-0.662,2.584-3.048,4.26-4.401c1.894-1.529,4.392-2.992,6.895-3.99c6.346-2.531,13.398-2.661,19.992-1.131
			c14.504,3.364,25.236,16.894,25.496,31.64C297.213,636.728,296.68,639.896,296.192,641.372z"/>
		<path style="fill:#1E1E1E;" d="M700.915,717.062c-19.199-5.834-39.656,2.687-51.665,18.204
			c-13.047,16.858-16.761,40.807-5.262,59.467c9.955,16.156,29.91,23.67,48.159,19.134c23.399-5.816,39.227-28.789,40.188-52.216
			c0.035-0.434,0.056-0.866,0.049-1.292C732.037,740.605,720.095,722.891,700.915,717.062z M713.911,777.177
			c-0.9,2.723-2.035,4.626-3.067,5.908c-3.064,3.81-7.576,7.089-13.312,8.73c-13.071,3.74-27.503-0.917-35.95-11.576
			c-3.903-4.925-6.541-10.792-7.083-17.095c-0.262-3.044-0.061-5.994,0.675-8.948c0.61-2.448,1.265-3.865,2.922-6.364
			c0.452-0.681,2.603-3.073,4.288-4.432c1.921-1.55,4.421-3.011,6.933-4.012c6.37-2.539,13.447-2.671,20.067-1.135
			c14.563,3.378,25.337,16.961,25.597,31.767C714.938,772.502,714.41,775.666,713.911,777.177z"/>
		<path style="fill:#1E1E1E;" d="M841.892,761.309c-28.313-9.382-59.271,1.528-77.338,24.9
			c-18.452,23.87-22.944,57.404-7.076,83.801c14.652,24.375,44.343,36.21,71.839,29.621c33.332-7.987,56.433-40.141,57.303-73.712
			c0.027-0.372,0.04-0.743,0.036-1.109C886.339,796.619,869.071,770.315,841.892,761.309z M866.947,848.903
			c-0.87,2.503-1.731,4.475-2.294,5.529c-0.617,1.153-1.273,2.279-1.943,3.401c0.015-0.026-0.33,0.525-0.536,0.86
			c-0.328,0.436-1.338,1.846-1.333,1.84c-5.589,7.23-13.789,13.29-23.572,16.333c-21.574,6.71-45.764-0.556-59.98-18.16
			c-6.662-8.249-11.227-18.404-12.067-29.046c-0.439-5.565-0.076-10.967,1.241-16.391c1.09-4.488,2.796-8.094,5.456-12.372
			c0.179-0.288,0.277-0.45,0.326-0.535c0.265-0.368,0.53-0.736,0.804-1.096c0.788-1.034,1.607-2.038,2.447-3.03
			c1.434-1.694,2.965-3.165,5.333-5.12c3.701-3.055,8.124-5.717,12.808-7.561c10.46-4.119,22.014-4.656,32.923-2.169
			c24.452,5.573,42.414,28.167,42.694,53.084C869.196,839.6,868.373,844.801,866.947,848.903z"/>
		<path style="fill:#1E1E1E;" d="M993.226,544.283c0.009-0.02,0.019-0.041,0.029-0.062c-0.094,0.184-0.165,0.323-0.213,0.421
			C993.103,544.523,993.165,544.403,993.226,544.283z"/>
		<path style="fill:#1E1E1E;" d="M183.622,503.515c-0.133,0.295-0.282,0.567-0.447,0.813c-0.015,0.034-0.032,0.065-0.047,0.1
			c-0.002,0.004-0.003,0.008-0.005,0.012C184.925,502.288,184.322,502.453,183.622,503.515z"/>
		<path style="fill:#1E1E1E;" d="M1014.526,772.781c0-5.316-4.334-7.4-8.869-5.12c-25.745,12.943-57.386,1.337-70.383-23.85
			c-5.472-10.605-6.873-24.605-3.449-35.074c0.483-1.478,1.034-2.933,1.637-4.365c0.037-0.088,0.363-0.782,0.496-1.078
			c0.233-0.459,0.469-0.919,0.724-1.363c2.018-3.514,2.02-3.632,4.455-6.548c3.144-3.766,7.798-7.58,12.891-10.309
			c14.829-7.945,32.9-7.31,47.761,0.161c7.837,3.94,14.736-9.18,14.736-15.282c0-44.561,0-89.121,0-133.682
			c0-6.203,0-12.407,0-18.61c0-0.338-0.021-0.662-0.057-0.976c-0.087-4.294-0.586-8.668-1.6-13.123
			c-7.716-33.914-41.461-56.801-70.213-71.956c-47.561-25.07-101.126-39.039-153.698-48.848
			c-68.701-12.819-138.775-17.612-208.599-17.057c-63.206,0.503-126.737,4.653-188.994,15.975
			c-42.715,7.768-85.085,19.038-124.797,36.81c-25.818,11.555-51.309,26.29-71.535,46.318
			c-14.34,14.199-27.172,31.389-31.389,51.523c-0.753,3.596-1.133,7.322-1.147,10.994c0,34.638,0,69.275,0,103.913
			c0,55.156,0,110.312,0,165.468c0,12.59,0,25.18,0,37.77c0,2.573,1.405,6.211,4.55,6.211c22.362,0,44.725,0,67.087,0
			c35.699,0,71.397,0,107.096,0c8.269,0,16.538,0,24.807,0c5.136,0,9.125-4.557,11.113-8.874c1.665-3.618,3.326-9.987-0.927-12.618
			c-19.817-12.262-32.304-33.807-31.624-57.288c0.3-10.345,3.186-18.698,7.904-26.423c1.371-2.244,4.568-6.442,6.534-8.471
			c3.713-3.831,7.699-6.934,12.174-9.555c37.851-22.166,87.664,1.296,96.743,43.596c5.117,23.841-4.642,46.333-24.535,58.641
			c-4.195,2.596-7.409,7.209-8.293,12.1c-0.556,3.073-0.013,8.892,4.309,8.892c42.312,0,84.624,0,126.937,0
			c4.478,0,8.956,0,13.434,0c0,36.128,0,72.257,0,108.385c0,12.993,0,25.986,0,38.98c0,2.571,1.405,6.214,4.549,6.211
			c84.967-0.081,171.604-7.471,253.965-29.283c41.316-10.942,83.516-25.346,119.424-49.048
			c25.218-16.645,50.417-40.131,55.78-71.335c1.973-11.478,1.002-23.697,1.002-35.276
			C1014.526,797.137,1014.526,784.959,1014.526,772.781z M183.002,504.587c0.064-0.075,0.115-0.172,0.173-0.258
			c0.138-0.304,0.294-0.58,0.447-0.813c0.213-0.473,0.403-0.968,0.618-1.374c0.931-1.759,1.932-3.481,2.988-5.168
			c0.451-0.72,0.928-1.424,1.39-2.138c0.207-0.292,0.415-0.583,0.626-0.872c1.35-1.844,2.762-3.641,4.225-5.397
			c1.561-1.873,3.182-3.697,4.85-5.475c0.26-0.276,0.522-0.551,0.786-0.825c0.032-0.031,0.056-0.055,0.092-0.089
			c0.981-0.959,1.952-1.926,2.948-2.868c4.089-3.87,8.391-7.512,12.842-10.958c1.177-0.911,2.365-1.809,3.563-2.693
			c0.612-0.452,1.229-0.897,1.844-1.345c0.29-0.211,0.584-0.419,0.876-0.628c2.636-1.79,5.269-3.577,7.96-5.284
			c6.143-3.898,12.461-7.52,18.899-10.908c15.747-8.287,29.933-14.236,45.966-19.946c19.781-7.044,40.033-12.73,60.488-17.449
			c54.475-12.569,110.367-18.517,166.152-20.996c69.195-3.075,138.733-1.294,207.472,7.525
			c56.154,7.205,112.672,18.532,165.546,39.205c19.96,7.804,39.555,17.004,57.492,28.8c13.95,9.174,26.168,19.09,35.627,32.886
			c1.975,2.881,3.724,5.884,5.311,8.993c0.106,0.208,0.268,0.558,0.386,0.816c0.335,0.765,0.663,1.534,0.969,2.311
			c0.577,1.466,1.098,2.954,1.556,4.46c0.451,1.483,0.843,2.985,1.169,4.501c0.162,0.752,0.278,1.513,0.436,2.265
			c0.042,0.2,0.074,0.339,0.101,0.451c0.005,0.111,0.012,0.244,0.026,0.433c0.11,1.53,0.261,3.047,0.29,4.583
			c0.015,0.825,0.013,1.651-0.011,2.476c-0.016,0.575-0.093,1.584-0.109,1.905c-0.171,1.432-0.38,2.859-0.664,4.274
			c-0.172,0.858-0.394,1.703-0.579,2.558c-0.03,0.138-0.052,0.247-0.072,0.347c-0.044,0.113-0.096,0.247-0.161,0.424
			c-0.62,1.687-1.204,3.373-1.883,5.04c-0.13,0.319-0.264,0.619-0.379,0.865c0.08-0.156,0.174-0.337,0.292-0.562
			c-0.108,0.207-0.214,0.416-0.32,0.624c-0.239,0.509-0.376,0.747-0.184,0.359c-0.316,0.62-0.633,1.24-0.968,1.851
			c-0.92,1.677-1.925,3.298-2.95,4.913c-0.102,0.161-0.21,0.317-0.316,0.475c0,0,0,0.001-0.001,0.001
			c-0.698,0.911-1.36,1.85-2.066,2.756c-1.273,1.633-2.6,3.222-3.973,4.771c-0.707,0.797-1.442,1.568-2.154,2.36
			c-0.012,0.013-0.038,0.041-0.062,0.067c-0.337,0.335-1.132,1.138-1.136,1.142c-15.391,14.918-32.15,24.914-51.837,34.493
			c-24.967,12.149-51.399,21.127-78.125,28.522c-65.919,18.241-134.479,26.953-202.702,30.038
			c-15.511,0.701-31.035,1.067-46.561,1.169c13.218-38.653,26.436-77.307,39.654-115.96c2.056-6.013,4.112-12.026,6.169-18.039
			c1.114-3.258,2.296-11.754-3.5-11.754c-15.518,0-31.037,0-46.555,0c-15.124,0-30.249,0-45.373,0c-1.011-0.304-2.057-0.283-3.102,0
			c-21.098,0-42.196,0-63.294,0c-44.883,0-89.767,0-134.651,0c-38.819,0-77.638,0-116.457,0c-17.436,0-34.929-0.391-52.37-0.087
			c0.113-0.453,0.578-1.536,0.556-2.044c0.004-0.012,0.007-0.024,0.011-0.036c0.543-1.64,1.162-3.254,1.843-4.841
			C183.081,504.491,183.047,504.534,183.002,504.587z M557.481,563.224c0,2.496-0.324,4.966-0.982,7.383
			c-0.514,1.889-1.325,3.577-2.204,5.12c-0.239,0.42-0.496,0.834-0.755,1.244c-0.19,0.26-0.587,0.825-0.662,0.921
			c-0.77,0.974-1.564,1.96-2.437,2.846c0.066-0.111-1.86,1.569-2.251,1.881c-1.013,0.811-1.542,1.168-2.553,1.776
			c-20.258,12.179-47.558-0.024-53.483-22.49c-1.566-5.939-1.431-12.384,0.714-17.922c1.464-3.779,4.111-7.387,8.39-10.453
			c13.157,0,26.313,0,39.47,0C550.724,540.157,557.48,551.011,557.481,563.224z M180.864,510.589
			c0.14-0.407,0.258-0.822,0.391-1.232C181.177,510.098,180.244,512.387,180.864,510.589z M467.278,818.599
			c12.322-15.572,19.521-35.035,19.326-55.304c-0.25-26.046-13.558-50.857-35.608-64.885c-22.297-14.185-50.617-14.986-74.323-3.904
			c-24.94,11.659-43.112,36.591-48.082,63.479c-3.978,21.523,0.854,43.359,12.882,60.614c-11.407,0-22.814,0-34.221,0
			c-35.699,0-71.397,0-107.096,0c-6.752,0-13.505,0-20.257,0c0-32.567,0-65.135,0-97.702c0-55.156,0-110.312,0-165.468
			c0-7.299,0-14.599,0-21.898c11.234,0,22.468,0,33.703,0c37.256,0,74.513,0,111.769,0c44.884,0,89.767,0,134.651,0
			c7.332,0,14.664,0,21.996,0c-5.135,8.664-8.123,18.579-8.309,28.935c-0.293,16.389,7.722,32.19,21.396,41.294
			c14.136,9.412,32.375,9.606,47.441,2.382c16.179-7.757,27.914-24.352,31.313-41.782c2.074-10.637,0.831-21.394-3.345-30.829
			c1.989,0,3.977,0,5.966,0c12.931,0,25.862,0,38.792,0c3.67,0,7.52,0.263,11.319,0.299
			c-13.189,38.569-26.378,77.138-39.567,115.706c-2.008,5.871-4.015,11.742-6.023,17.612c-0.764,1.96-1.196,4.012-1.196,5.97
			c0,35.614,0,71.229,0,106.843c0,12.879,0,25.759,0,38.638C542.296,818.599,504.787,818.599,467.278,818.599z M997.123,842.665
			c-0.01,1.001-0.049,1.997-0.085,2.997c-0.003,0.092-0.005,0.155-0.007,0.228c-0.003,0.02-0.004,0.031-0.007,0.052
			c-0.064,0.492-0.12,0.984-0.19,1.475c-0.212,1.478-0.486,2.946-0.82,4.401c-0.111,0.486-0.253,0.971-0.356,1.459
			c-0.013,0.063-0.02,0.103-0.03,0.153c-0.062,0.163-0.134,0.354-0.229,0.615c-0.436,1.204-0.842,2.414-1.32,3.603
			c-0.283,0.702-0.61,1.389-0.888,2.092c-1.477,2.6-2.932,5.177-4.518,7.715c-0.04,0.049-0.069,0.083-0.115,0.14
			c-0.538,0.669-1.024,1.387-1.549,2.067c-0.896,1.161-1.821,2.3-2.769,3.418c-0.975,1.151-1.99,2.263-2.999,3.384
			c-0.149,0.166-0.794,0.829-1.117,1.166c-0.688,0.686-1.376,1.371-2.079,2.041c-5.383,5.129-11.206,9.827-17.288,14.103
			c-0.042,0.017-2.686,1.812-3.349,2.249c-1.896,1.252-3.813,2.472-5.747,3.665c-3.702,2.282-7.468,4.46-11.283,6.549
			c-8.647,4.734-17.542,9.009-26.582,12.938c-19.587,8.515-39.944,15.282-60.479,21.103
			c-36.504,10.349-73.989,17.879-111.644,22.563c-47.884,5.956-96.212,9.081-144.467,9.31c0-33.537,0-67.074,0-100.611
			c0-56.368,0-112.737,0-169.105c0-7.728,0-15.457,0-23.185c69.013-0.724,138.318-6.905,205.852-21.261
			c30.805-6.548,61.346-14.837,90.803-26.04c23.884-9.084,47.421-19.837,68.446-34.494c12.649-8.818,25.191-19.871,34.816-32.651
			c0,31.414,0,62.829,0,94.244c-31.059-7.025-63.128,10.516-77.185,40.026c-14.9,31.279-6.109,71.008,25.312,88.332
			c16.106,8.88,34.881,9.717,51.89,3.877C997.18,808.411,997.296,825.542,997.123,842.665z"/>
	</g>
	<!-- <g>
		<path style="fill:#1E1E1E;" d="M2010.746,578.42c-7.903-20.311-17.104-40.528-28.541-59.214c-1.359-2.394-2.843-4.734-4.44-7.018
			c-0.903-1.372-1.819-2.735-2.748-4.088c-0.436-0.634-0.92-1.105-1.434-1.459c-13.65-16.906-33.138-30.497-51.279-40.442
			c-44.228-24.247-94.291-38.042-143.523-47.695c-64.041-12.556-129.604-17.427-194.81-16.744
			c-63.837,0.669-128.019,6.615-190.439,20.289c-47.428,10.389-95.889,24.997-137.636,50.405
			c-15.714,9.563-32.108,22.312-44.515,37.501c-1.186,1.274-2.182,2.619-2.884,3.641c-0.076,0.111-0.148,0.224-0.224,0.335
			c-3.045,4.066-5.791,8.294-8.157,12.67c-16.385,26.989-28.589,57.075-37.839,86.961c-13.867,44.804-21.586,92.682-15.266,139.498
			c3.244,24.031,10.163,47.243,21.724,68.626c12.123,22.421,29.385,41.671,49.621,57.09c24.682,18.807,53.112,30.811,82.532,40.057
			c28.933,9.093,58.271,16.8,88.068,22.494c69.784,13.335,141.133,16.034,212.01,16.724c11.317,0.11,22.635,0.154,33.952,0.157
			c7.752,0.002,12.494-9.151,12.853-15.871c1.088-20.352,2.176-40.703,3.264-61.055c0.458-8.562,0.915-17.123,1.373-25.685
			c23.203,6.202,46.405,12.403,69.608,18.605c42.882,11.461,85.764,22.923,128.646,34.384c9.439,2.523,18.878,5.046,28.317,7.569
			c0.538,0.271,1.139,0.425,1.801,0.433c1.538,0.256,3.063-0.249,4.482-1.204c38.31-12.923,74.053-32.924,101.485-63.058
			c23.077-25.35,38.288-57.042,45.51-90.429C2045.449,700.913,2033.058,635.765,2010.746,578.42z M1226.155,515.488
			c0.499-0.497,0.995-0.996,1.502-1.485c2.969-2.866,6.075-5.589,9.281-8.188c7.234-5.867,12.206-9.219,20.674-14.293
			c8.65-5.183,17.614-9.834,26.755-14.086c20.943-9.74,42.866-17.291,65.056-23.635c55.559-15.885,113.295-24.288,170.893-27.933
			c64.554-4.085,129.664-2.423,193.851,5.701c52.775,6.68,105.789,17.45,155.479,36.824c32.55,12.692,68.671,29.761,90.375,57.894
			c0.01,0.014,0.016,0.03,0.026,0.044c2.984,4.34,5.783,8.804,8.461,13.339c1.675,3.425,3.044,6.996,4.015,10.74
			c0.914,3.523,1.401,7.041,1.459,10.677c0.018,1.115-0.017,2.223-0.044,3.337c-0.053,2.207,0.144,0.023-0.201,2.204
			c-0.335,2.118-0.715,4.203-1.222,6.288c-0.04,0.163-0.068,0.286-0.092,0.39c-0.045,0.112-0.111,0.291-0.211,0.579
			c-0.387,1.114-0.767,2.228-1.196,3.327c-0.323,0.826-0.67,1.642-1.025,2.454c-0.031,0.042-0.543,1.136-0.834,1.685
			c-1.176,2.222-2.489,4.355-3.847,6.469c-0.137,0.214-0.23,0.362-0.299,0.474c-0.087,0.103-0.218,0.265-0.421,0.523
			c-0.82,1.047-1.602,2.122-2.435,3.16c-1.6,1.991-3.281,3.914-5.016,5.789c-1.081,1.169-0.285,0.368-1.774,1.812
			c-0.902,0.875-1.808,1.746-2.73,2.6c-2.229,2.063-4.527,4.048-6.879,5.969c-9.699,7.92-20.369,14.536-31.377,20.472
			c-12.441,6.708-25.361,12.484-38.537,17.588c-30.23-12.28-60.46-24.561-90.69-36.841c-25.139-10.212-50.277-20.424-75.416-30.636
			c23.254-8.956,46.507-17.912,69.76-26.869c11.364-4.377,22.727-8.754,34.09-13.131c5.457-2.102,9.46-7.219,10.506-13.001
			c0.674-3.728-0.919-10.82-6.415-8.703c-40.959,15.778-81.919,31.553-122.879,47.329c-3.499,1.348-6.998,2.695-10.497,4.043
			c-15.524-6.306-31.049-12.613-46.573-18.919c-11.365-4.617-22.73-9.233-34.094-13.85c-8.257-3.354-16.93,10.568-14.41,17.649
			c5.397,15.167,10.794,30.334,16.192,45.502c-26.418,10.174-52.837,20.348-79.254,30.524c-5.457,2.102-9.46,7.218-10.506,13.001
			c-0.674,3.728,0.919,10.821,6.415,8.703c29.881-11.51,59.762-23.018,89.644-34.526c1.34,3.765,2.68,7.531,4.02,11.296
			c6.269,17.618,12.539,35.236,18.808,52.854c1.068,3.002,2.136,6.004,3.205,9.005c-58.148,2.321-116.565,0.082-174.259-7.524
			c-52.11-6.87-104.441-17.772-153.412-37.242c-32.457-12.904-68.009-30.226-89.075-58.568c-2.066-2.779-3.978-5.675-5.68-8.691
			c-0.786-1.394-1.53-2.812-2.221-4.256c-0.051-0.106-0.048-0.092-0.036-0.057c-0.036-0.089-0.111-0.273-0.273-0.665
			c-0.32-0.773-0.644-1.542-0.943-2.323c-1.128-2.948-2.036-5.981-2.684-9.071c-0.142-0.677-0.25-1.361-0.389-2.038
			c-0.038-0.184-0.066-0.317-0.091-0.428c-0.005-0.072-0.012-0.159-0.024-0.276c-0.142-1.488-0.279-2.971-0.325-4.466
			c-0.23-7.463,1.607-14.385,4.776-20.764c0.849-1.425,1.706-2.846,2.582-4.254c1.188-1.909,2.415-3.792,3.661-5.663
			c0.705-0.922,1.427-1.836,2.177-2.73c1.081-1.287,2.193-2.547,3.333-3.781C1225.271,516.4,1226,515.652,1226.155,515.488z
			 M1422.271,923.577c-29.048-4.528-57.79-10.817-86.094-18.764c-29.427-8.262-58.711-17.585-85.191-33.167
			c-42.861-25.222-72.806-64.766-83.701-112.954c-4.808-21.267-5.965-43.495-4.512-66.338c0.08-1.261,0.168-2.522,0.265-3.782
			c0.06-0.787,0.125-1.574,0.19-2.361c0.007-0.083,0.012-0.147,0.017-0.207c0.278-2.964,0.598-5.923,0.959-8.878
			c0.686-5.611,1.52-11.205,2.487-16.775c1.904-10.967,4.327-21.842,7.194-32.597c0.313-1.174,0.633-2.346,0.955-3.518
			c0.008-0.028,0.195-0.692,0.335-1.194c0.143-0.497,0.329-1.146,0.338-1.174c0.757-2.584,1.528-5.163,2.33-7.733
			c1.571-5.037,3.236-10.044,4.993-15.019c2.883-8.163,6.025-16.234,9.395-24.209c0.311,1.474,0.672,2.955,1.089,4.445
			c9.02,32.212,39.968,54.255,67.854,69.375c43.987,23.85,93.617,37.511,142.469,47.077c63.475,12.43,128.442,17.323,193.072,16.735
			c15.52-0.141,31.033-0.646,46.531-1.457c-0.159,2.974-0.318,5.948-0.477,8.922c-0.752,14.068-1.504,28.135-2.256,42.203
			c-1.474,27.568-2.947,55.136-4.421,82.705c-0.019,0.218-0.028,0.435-0.035,0.651c-0.576,10.78-1.153,21.561-1.729,32.341
			c-1.035,19.355-2.62,38.797-3.437,58.205C1561.245,935.946,1491.172,934.318,1422.271,923.577z M1807.189,872.664
			c-42.882-11.461-85.764-22.923-128.646-34.384c-8.285-2.214-16.569-4.429-24.854-6.643c1.181-22.085,2.361-44.169,3.542-66.254
			c0.84-15.713,1.68-31.425,2.52-47.138c0.402-7.527,1.314-15.219,1.217-22.761c-0.08-6.239-3.943-13.139-5.986-18.879
			c-5.774-16.227-11.548-32.453-17.323-48.68c-6.482-18.216-12.964-36.432-19.446-54.647c-0.815-2.289-1.611-4.59-2.403-6.894
			c19.534,7.935,39.068,15.87,58.601,23.805c0.588,0.506,1.3,0.823,2.146,0.872c2.715,1.103,5.429,2.206,8.144,3.308
			c49.141,19.963,98.283,39.925,147.424,59.888c10.552,4.287,21.104,8.573,31.656,12.86c1.308,26.517,2.616,53.034,3.925,79.551
			c2.187,44.324,4.373,88.648,6.56,132.972c0.183,3.7,0.365,7.4,0.548,11.1C1852.272,884.714,1829.731,878.689,1807.189,872.664z
			 M2019.922,729.497c-0.136,3.637-0.355,7.271-0.652,10.899c-0.039,0.345-0.27,2.826-0.334,3.414
			c-0.238,2.194-0.507,4.384-0.809,6.569c-1.035,7.487-2.453,14.923-4.295,22.255c-0.23,0.917-0.474,1.83-0.71,2.745
			c-0.047,0.183-0.261,0.943-0.398,1.433c-0.467,1.599-0.945,3.196-1.453,4.783c-1.158,3.614-2.425,7.193-3.805,10.728
			c-1.263,3.235-2.644,6.418-4.082,9.577c-0.129,0.232-1.347,2.786-1.563,3.21c-1.02,2.006-2.079,3.993-3.178,5.957
			c-1.902,3.401-3.92,6.737-6.053,9.997c-0.448,0.686-0.906,1.364-1.36,2.046c-0.036,0.053-0.056,0.085-0.084,0.127
			c-0.018,0.025-0.03,0.041-0.049,0.067c-1.367,1.877-2.714,3.765-4.13,5.606c-11.207,14.576-24.16,26.533-39.359,36.694
			c-17.016,11.375-35.559,20.115-54.829,26.887c-1.25-25.344-2.5-50.687-3.751-76.031c-2.187-44.324-4.373-88.648-6.56-132.972
			c-0.32-6.484-0.64-12.968-0.96-19.452c24.124-9.893,47.55-21.881,67.944-38.243c16.345-13.113,30.63-29.732,37.683-49.59
			c0.832,1.908,1.671,3.868,2.532,5.917c10.972,26.097,19.486,53.316,24.843,81.126c2.887,14.988,4.536,27.819,5.277,43.502
			C2020.146,714.325,2020.205,721.917,2019.922,729.497z"/>
		<path style="fill:#1E1E1E;" d="M1327.973,591.721c54.99-49.29,119.983-87.226,190.32-109.902
			c19.645-6.334,39.655-11.468,59.91-15.437c5.504-1.079,9.586-7.914,10.506-13.001c0.825-4.56-0.89-9.786-6.415-8.703
			c-74.984,14.695-146.144,45.949-208.51,89.963c-17.621,12.436-34.489,25.883-50.549,40.278c-3.988,3.575-7.67,10.078-6.006,15.599
			C1318.839,595.861,1324.648,594.702,1327.973,591.721z"/>
		<path style="fill:#1E1E1E;" d="M1408.947,600.081c-4.763,3.291-8.709,8.719-8.534,14.781c0.137,4.727,4.404,8.205,8.869,5.12
			c76.684-52.989,161.134-94.534,250.222-122.052c25.238-7.796,50.812-14.457,76.633-20.02c5.509-1.187,9.572-7.84,10.506-13.001
			c0.809-4.471-0.884-9.895-6.415-8.703c-92.321,19.888-181.521,54.284-263.5,101.149
			C1453.53,570.617,1430.928,584.892,1408.947,600.081z"/>
	</g> -->
</g>
</svg>
